Coordinates
version=1
nRows=10
nColumns=40
inDegrees=yes

Units are S.I. units (second, meters, Newtons, ...)
Angles are in degrees.

endheader
time	pelvis_tilt	pelvis_list	pelvis_rotation	pelvis_tx	pelvis_ty	pelvis_tz	hip_flexion_r	hip_adduction_r	hip_rotation_r	knee_angle_r	knee_angle_r_beta	ankle_angle_r	subtalar_angle_r	mtp_angle_r	hip_flexion_l	hip_adduction_l	hip_rotation_l	knee_angle_l	knee_angle_l_beta	ankle_angle_l	subtalar_angle_l	mtp_angle_l	lumbar_extension	lumbar_bending	lumbar_rotation	arm_flex_r	arm_add_r	arm_rot_r	elbow_flex_r	pro_sup_r	wrist_flex_r	wrist_dev_r	arm_flex_l	arm_add_l	arm_rot_l	elbow_flex_l	pro_sup_l	wrist_flex_l	wrist_dev_l
     47.71800000	     -3.60214725	     -4.34972128	      4.35588848	      0.95643102	      0.93341475	      0.50405314	      8.84758158	      3.14026047	    -19.00969068	     13.41442240	     13.41442240	     11.10551494	      5.60072358	     -6.21666010	     29.17015610	    -11.49636211	     -3.53726644	     29.98873028	     29.98873028	     12.96395566	    -17.06940707	     13.56897836	    -10.59036554	      8.87923598	      3.89533283	     31.93934832	    -17.12720383	     -4.34653282	     50.11060349	     45.70599754	      0.00000000	      0.00000000	      1.03389293	     -6.71645373	     -0.02050925	     27.23699678	     46.22015920	      0.00000000	      0.00000000
     47.73100000	     -3.71915738	     -4.33516974	      4.48316452	      0.95521972	      0.93314712	      0.50359116	      8.44709691	      3.16795915	    -19.03798799	     13.13666949	     13.13666949	     11.35616659	      5.65359793	     -6.28795758	     29.61078613	    -11.02948636	     -3.12460806	     27.58568614	     27.58568614	     12.70258934	    -15.79488980	     13.63143491	    -10.59052597	      8.81198199	      3.66144706	     33.68422596	    -16.86698959	     -4.38024835	     51.83661786	     45.65247573	      0.00000000	      0.00000000	     -0.44267346	     -6.77350637	     -0.01751286	     26.24645571	     46.19061843	      0.00000000	      0.00000000
     47.74400000	     -3.84587943	     -4.37572389	      4.60868676	      0.95403439	      0.93279635	      0.50306197	      8.03836168	      3.24315036	    -19.17451009	     12.82615665	     12.82615665	     11.61559537	      5.86939272	     -6.39716103	     30.09024315	    -10.63740850	     -2.75758280	     25.45495977	     25.45495977	     12.39549572	    -14.36996688	     13.53969822	    -10.56326242	      8.80458590	      3.43841568	     35.25947286	    -16.58999963	     -4.30642162	     53.90296628	     45.58207366	      0.00000000	      0.00000000	     -1.83539704	     -6.81222955	     -0.00572844	     25.22020432	     46.16358814	      0.00000000	      0.00000000
     47.75700000	     -3.96314867	     -4.50356228	      4.72100355	      0.95305886	      0.93235155	      0.50244391	      7.56335532	      3.39914316	    -19.48444679	     12.43333497	     12.43333497	     11.80139129	      6.42849326	     -6.63585464	     30.56986485	    -10.38944681	     -2.55414709	     23.59426729	     23.59426729	     11.65301627	    -12.86638824	     12.22329619	    -10.61524907	      8.92508919	      3.73437986	     35.68993857	    -17.20508047	     -3.72467735	     58.67428020	     45.39114045	      0.00000000	      0.00000000	     -2.78171789	     -6.74893952	     -0.07868172	     24.02847725	     46.15264756	      0.00000000	      0.00000000
     47.77000000	     -4.05328318	     -4.53804192	      4.79569263	      0.95210669	      0.93203433	      0.50179209	      7.10099544	      3.47885663	    -19.51893872	     12.12232764	     12.12232764	     12.06144001	      6.56344185	     -6.68335876	     30.94700319	    -10.04405598	     -2.41130936	     21.97563319	     21.97563319	     11.27480958	    -11.54454304	     12.30264806	    -10.60182097	      8.88338827	      3.57036263	     37.13782605	    -16.88063481	     -3.74022306	     60.57742848	     45.33355150	      0.00000000	      0.00000000	     -4.11159983	     -6.82709448	     -0.04458971	     23.30704866	     46.11962271	      0.00000000	      0.00000000
     47.78300000	     -4.13830739	     -4.63129719	      4.87524132	      0.95134449	      0.93162726	      0.50105884	      6.58144545	      3.62056867	    -19.64145405	     11.73051417	     11.73051417	     12.31119391	      6.88405413	     -6.72724388	     31.38269656	     -9.79541436	     -2.39356377	     20.80835361	     20.80835361	     10.86503721	    -10.32849026	     12.24350391	    -10.61690549	      8.91627333	      3.36331122	     38.32880664	    -16.58431022	     -3.62396891	     63.24454573	     45.24501124	      0.00000000	      0.00000000	     -5.46110925	     -6.89613758	     -0.01715673	     22.83548784	     46.08415075	      0.00000000	      0.00000000
     47.79600000	     -4.21686050	     -4.71043679	      4.91668407	      0.95075963	      0.93119590	      0.50028018	      6.07259228	      3.74380738	    -19.69856297	     11.39511171	     11.39511171	     12.57232159	      7.13475063	     -6.75339767	     31.74755119	     -9.55522975	     -2.46284516	     19.92196394	     19.92196394	     10.34986622	     -9.41095183	     12.24878984	    -10.59392374	      8.91908303	      3.25800372	     39.30065117	    -16.36782348	     -3.48425713	     65.86356476	     45.15788828	      0.00000000	      0.00000000	     -6.78072468	     -6.98755989	      0.00267783	     22.60338969	     46.04812145	      0.00000000	      0.00000000
     47.80900000	     -4.31267949	     -4.82749540	      4.93239336	      0.95039845	      0.93057781	      0.49944359	      5.58662068	      3.89204076	    -19.76222484	     11.09598869	     11.09598869	     12.88317771	      7.42925434	     -6.75229238	     32.15470134	     -9.37441599	     -2.54512491	     19.48476806	     19.48476806	      9.73618490	     -8.84551789	     11.81064598	    -10.61439625	      8.94585903	      3.78481733	     39.41374836	    -17.06091245	     -3.27246187	     70.33402684	     45.01599427	      0.00000000	      0.00000000	     -8.00092953	     -7.14780039	      0.16590744	     23.31812702	     45.96820807	      0.00000000	      0.00000000
     47.82200000	     -4.35276795	     -4.90972942	      4.93686440	      0.95027093	      0.92999825	      0.49849667	      5.06412207	      4.00665496	    -19.68428268	     10.87204925	     10.87204925	     13.19375450	      7.49324084	     -6.75159779	     32.38941714	     -9.16147759	     -2.60566832	     19.28852312	     19.28852312	      9.20028049	     -8.59798943	     11.87301880	    -10.54682824	      8.95214168	      3.54775603	     40.49424556	    -16.56566908	     -3.25377566	     72.25005941	     44.96117970	      0.00000000	      0.00000000	     -9.22439455	     -7.21368049	      0.28989320	     22.99341401	     45.91702344	      0.00000000	      0.00000000
     47.83500000	     -4.40731077	     -5.01271576	      4.92893236	      0.95038362	      0.92925266	      0.49750886	      4.54973893	      4.13662141	    -19.55029715	     10.65983852	     10.65983852	     13.53497170	      7.54079299	     -6.67563928	     32.60394931	     -8.98765361	     -2.64112505	     19.42209196	     19.42209196	      8.54979543	     -8.55444274	     11.64022762	    -10.48507645	      8.91057388	      3.57617152	     41.05356666	    -16.50442236	     -3.10311211	     75.14168778	     44.87498248	      0.00000000	      0.00000000	    -10.50673081	     -7.33104135	      0.45432451	     23.44653761	     45.84561837	      0.00000000	      0.00000000
